<svg width="125" height="48" fill="none" xmlns="http://www.w3.org/2000/svg"><path d="M30.54 33.308c-1.381 3.047-4.578 6.322-10.23 6.339-6.427 0-11.182-4.753-11.182-11.378 0-3.237 1.193-6.24 3.131-8.211 2.192-2.137 4.755-3.254 8.072-3.166 4.952-.02 8.585 2.73 10.226 6.625l7.635-4.264C34.82 12.718 27.882 8.623 20 8.623 8.615 8.623 0 17.353 0 28.236 0 38.83 8.323 47.91 20.293 47.91c8.088 0 14.596-4.343 17.874-10.442l-7.455-4.16h-.172zM61.558 8.672c-13.206 0-20.312 10.057-20.312 19.526v.068c0 9.554 7.106 19.594 20.312 19.594 13.212 0 20.315-10.04 20.315-19.594 0-9.537-7.103-19.594-20.315-19.594zm0 30.857c-6.199 0-11.233-4.807-11.233-11.263v-.068c0-6.521 5.034-11.328 11.233-11.328 6.21 0 11.236 4.804 11.236 11.328 0 6.524-5.026 11.331-11.236 11.331zM99.128 39.819s-2.63.024-2.706-2.26V0h-9.081v37.444s-.702 9.278 8.306 9.278v.008h7.248v-6.914h-3.767v.003zM119.762 39.819s-2.632.024-2.706-2.26V17.576h7.297V10.66h-7.297V0h-9.079v37.444s-.54 9.303 8.299 9.278l.002.008H125v-6.914h-5.238v.003z" fill="#00D7BD"/></svg>
