<?xml version="1.0" encoding="UTF-8"?>
<svg id="Layer_2" xmlns="http://www.w3.org/2000/svg" viewBox="0 0 459.8 193.62">
  <defs>
    <style>
      .cls-1, .cls-2 {
        fill: #1b3281;
        fill-rule: evenodd;
      }

      .cls-2 {
        stroke: #1b3281;
        stroke-miterlimit: 2.61;
        stroke-width: .22px;
      }
    </style>
  </defs>
  <g id="Layer_1-2" data-name="Layer_1">
    <g>
      <path class="cls-2" d="M351.04,5.76c11.24,2.24,20.17,5.14,28.87,9.21,3.9,1.82,7.89,3.64,11.51,6.03,4.72,3.12,9.21,6.64,12.74,10.63,3.49,3.94,6.3,7.52,7.35,12,.89,3.81,1.02,7.13.7,9.68-2.45,19.41-25.35,28.92-45.42,35.47-16.01,4.51-33.55,7.2-48.15,7.79l.1-94.28c11.7.19,20.77,1.3,32.31,3.46Z"/>
      <path class="cls-2" d="M347.97,98.76s15.34-2.81,21.24-4.25c10.25-2.76,17.33-5.63,24.17-9.22,19.22-10.1,25.63-21.64,26.5-33.14.97-12.75-7.27-25.72-26.4-37.44-7.05-4.32-16.49-8.29-24.3-10.38-5.25-1.41-13.02-2.9-21.06-4.11,7.09-.28,15.54.02,20.96.5,21.87,1.94,37.07,4.89,47.56,8.53,27.78,10.39,60.31,40.32,31.14,65.79-22.62,19.75-67.26,24.64-99.82,23.72Z"/>
      <path class="cls-1" d="M7.66,93.66v67.56h9.35c11.33,0,20.12-2.97,26.38-8.9,6.28-5.91,9.41-14.24,9.41-24.93s-2.97-19.45-8.91-25.17c-5.92-5.72-14.68-8.56-26.24-8.56H7.66ZM0,87.02h15.72c14.85,0,26.12,3.41,33.83,10.22,7.7,6.83,11.55,16.8,11.55,29.91s-3.94,22.94-11.8,30.2c-7.88,7.26-18.83,10.89-32.88,10.89H0v-81.22h0ZM76.8,109.95h7.49v58.29h-7.49v-58.29h0ZM76.21,82.69h8.54v9.48h-8.54v-9.48h0ZM95.95,109.95h7.84l16.75,51.84,17.37-51.84h7.13l-20.48,58.29h-8.89l-19.72-58.29h0ZM147.17,109.95h7.96l17.11,50.59,17.23-50.59h7.49l-23.67,66.97c-2.14,5.99-4.54,10.26-7.21,12.84-2.65,2.58-6,3.86-10.02,3.86-.93,0-1.92-.06-2.93-.18-1.03-.12-2.06-.27-3.11-.51l.57-6.57.3.06c2.44.37,3.96.57,4.58.57,2.83,0,5.19-1.17,7.09-3.49,1.88-2.32,3.88-6.63,5.98-12.92l-21.37-60.63h0ZM231.3,138.64c-6.95,0-12.3,1.15-16.02,3.43-3.74,2.28-5.6,5.54-5.6,9.75,0,3.36,1.09,6.07,3.27,8.14,2.2,2.09,5.07,3.12,8.61,3.12,5.51,0,9.88-1.72,13.15-5.13,3.27-3.43,4.89-8.08,4.89-13.95v-5.37h-8.3ZM246.96,131.04v37.2h-6.61v-10.07c-2.2,3.59-4.97,6.3-8.32,8.12-3.35,1.83-7.15,2.75-11.41,2.75-5.68,0-10.24-1.52-13.67-4.57-3.43-3.06-5.13-7.12-5.13-12.17,0-6.22,2.63-11.04,7.88-14.5,5.27-3.45,12.69-5.17,22.28-5.17h7.6c0-.23.02-.55.06-.98.04-.41.06-.74.06-.98,0-4.84-1.23-8.62-3.68-11.37-2.46-2.75-5.84-4.12-10.18-4.12-3.01,0-5.92.41-8.69,1.21-2.79.8-5.55,2.03-8.3,3.71v-7.14c2.93-1.42,5.9-2.48,8.89-3.2,3.01-.72,5.98-1.09,8.91-1.09,6.77,0,11.84,1.87,15.23,5.6,3.39,3.75,5.07,9.33,5.07,16.76h0ZM297.98,89.15l-1.09,7.61c-2.32-1.19-4.71-2.08-7.15-2.67-2.43-.59-4.95-.88-7.58-.88-5.64,0-10.06,1.13-13.25,3.38-3.19,2.24-4.79,5.33-4.79,9.25,0,4.96,5.36,10.48,16.12,16.52,1.46.82,2.59,1.43,3.37,1.87,7.46,4.28,12.31,7.9,14.56,10.93,2.23,3.01,3.37,6.65,3.37,10.96,0,6.75-2.44,12.21-7.29,16.41-4.85,4.19-11.21,6.28-19.05,6.28-3.21,0-6.4-.3-9.57-.94-3.17-.63-6.26-1.56-9.23-2.79l.93-8.45c3.37,1.78,6.52,3.1,9.49,3.96,2.95.86,5.78,1.29,8.5,1.29,5.45,0,9.82-1.37,13.11-4.12,3.28-2.74,4.93-6.4,4.93-10.96,0-5.48-5.23-11.18-15.67-17.09-1.62-.92-2.85-1.62-3.7-2.11-7.21-4.15-11.94-7.72-14.26-10.75-2.3-3-3.45-6.56-3.45-10.63,0-6.24,2.27-11.11,6.81-14.59,4.55-3.5,10.95-5.23,19.23-5.23,2.51,0,5.07.22,7.64.68,2.56.46,5.25,1.15,8.02,2.07h0ZM345.97,109.5v7.47c-.85-.18-1.62-.33-2.3-.43-.67-.1-1.29-.14-1.82-.14-4.99,0-8.9,1.85-11.72,5.54-2.84,3.7-4.24,8.82-4.24,15.37v30.92h-7.49v-58.29h6.91v12.29c1.47-4.16,3.67-7.37,6.61-9.66,2.93-2.28,6.36-3.43,10.28-3.43.53,0,1.11.02,1.7.08.59.06,1.29.16,2.06.27h0ZM402.31,136.17v4.23h-41.85c.24,7.39,2.19,13.08,5.86,17.01,3.68,3.95,8.87,5.91,15.57,5.91,2.61,0,5.27-.35,7.92-1.05,2.63-.7,5.31-1.78,7.98-3.18v7.26c-2.59,1.11-5.27,1.94-8.02,2.5-2.75.56-5.6.82-8.6.82-8.73,0-15.59-2.73-20.54-8.17-4.95-5.44-7.43-13.03-7.43-22.75,0-9.07,2.39-16.37,7.19-21.89,4.81-5.53,11.09-8.29,18.87-8.29,7.03,0,12.64,2.48,16.79,7.43,4.16,4.96,6.24,11.69,6.24,20.17h0ZM395.06,134.98c-.42-6.52-2.07-11.54-4.93-15.02-2.87-3.5-6.77-5.23-11.72-5.23s-8.81,1.81-12.02,5.46c-3.21,3.65-5.11,8.56-5.68,14.79h34.36ZM459.8,136.17v4.23h-41.85c.24,7.39,2.19,13.08,5.86,17.01,3.68,3.95,8.87,5.91,15.57,5.91,2.61,0,5.27-.35,7.92-1.05,2.63-.7,5.31-1.78,7.98-3.18v7.26c-2.59,1.11-5.27,1.94-8.02,2.5-2.75.56-5.61.82-8.6.82-8.73,0-15.59-2.73-20.54-8.17s-7.43-13.03-7.43-22.75c0-9.07,2.39-16.37,7.19-21.89,4.81-5.53,11.09-8.29,18.87-8.29,7.03,0,12.64,2.48,16.79,7.43,4.16,4.96,6.24,11.69,6.24,20.17h0ZM452.55,134.98c-.42-6.52-2.07-11.54-4.93-15.02-2.87-3.5-6.77-5.23-11.72-5.23s-8.81,1.81-12.02,5.46c-3.21,3.65-5.11,8.56-5.68,14.79h34.36Z"/>
    </g>
  </g>
</svg>